<svg width="202" height="32" viewBox="0 0 202 32" fill="none" xmlns="http://www.w3.org/2000/svg">
<mask id="mask0_2052_230" style="mask-type:alpha" maskUnits="userSpaceOnUse" x="0" y="0" width="202" height="32">
<rect width="202" height="32" fill="#D9D9D9"/>
</mask>
<g mask="url(#mask0_2052_230)">
<path d="M13.7322 22.4624H1.92899L1.77176 20.4072L8.57742 9.64844H11.1829L8.40897 14.4551L5.01736 19.8345H13.7322V22.4624ZM11.8904 26H8.62234V9.64844H11.8904V26ZM17.618 26.1235C17.0639 26.1235 16.6184 25.9588 16.2815 25.6294C15.9446 25.2925 15.7762 24.877 15.7762 24.3828C15.7762 23.8887 15.9446 23.4731 16.2815 23.1362C16.6184 22.7993 17.0639 22.6309 17.618 22.6309C18.187 22.6309 18.6362 22.7993 18.9656 23.1362C19.3025 23.4731 19.471 23.8887 19.471 24.3828C19.471 24.877 19.3025 25.2925 18.9656 25.6294C18.6362 25.9588 18.187 26.1235 17.618 26.1235ZM24.7044 23.4282C25.6103 23.4282 26.3852 23.3234 27.0291 23.1138C27.6805 22.9041 28.212 22.5972 28.6238 22.1929C29.0356 21.7886 29.3388 21.2907 29.5335 20.6992C29.7281 20.1077 29.8255 19.4264 29.8255 18.6553V15.4995C29.8255 14.7284 29.7244 14.0882 29.5222 13.5791C29.3201 13.07 29.0468 12.6882 28.7024 12.4336C28.358 12.179 27.965 12.0518 27.5232 12.0518C27.0515 12.0518 26.651 12.2015 26.3216 12.501C25.9921 12.793 25.7413 13.1785 25.5691 13.6577C25.3969 14.1294 25.3108 14.631 25.3108 15.1626C25.3108 15.7091 25.3932 16.2145 25.5579 16.6787C25.7301 17.1429 25.9846 17.5135 26.3216 17.7905C26.666 18.0675 27.1002 18.2061 27.6243 18.2061C27.9912 18.2061 28.3206 18.1387 28.6126 18.0039C28.9121 17.8617 29.1666 17.6782 29.3763 17.4536C29.5934 17.229 29.7618 16.9744 29.8816 16.6899C30.0014 16.4054 30.0651 16.1209 30.0725 15.8364L31.1619 16.4766C31.1619 16.9857 31.0496 17.491 30.825 17.9927C30.6004 18.4868 30.2897 18.9398 29.8929 19.3516C29.496 19.7633 29.0319 20.0928 28.5003 20.3398C27.9762 20.5869 27.4147 20.7104 26.8157 20.7104C25.79 20.7104 24.9215 20.4709 24.2102 19.9917C23.5065 19.505 22.9711 18.8462 22.6043 18.0151C22.2374 17.1841 22.054 16.2445 22.054 15.1963C22.054 14.1406 22.2786 13.1748 22.7278 12.2988C23.177 11.4229 23.8134 10.7228 24.637 10.1987C25.4606 9.67464 26.4264 9.4126 27.5345 9.4126C28.3805 9.4126 29.1442 9.57357 29.8255 9.89551C30.5068 10.21 31.0908 10.6629 31.5774 11.2544C32.0641 11.8459 32.4347 12.5496 32.6892 13.3657C32.9513 14.1818 33.0823 15.0877 33.0823 16.0835V17.2178C33.0823 18.2884 32.97 19.2842 32.7454 20.2051C32.5283 21.1185 32.1988 21.9421 31.7571 22.6758C31.3229 23.4095 30.7688 24.0384 30.095 24.5625C29.4287 25.0791 28.65 25.4759 27.7591 25.7529C26.8681 26.0299 25.8611 26.1685 24.7381 26.1685H24.491V23.4282H24.7044Z" fill="url(#paint0_linear_2052_230)"/>
<path d="M36.5638 27.4038H34.1267L40.1463 9.64844H42.5721L36.5638 27.4038ZM44.4812 17.959L45.4134 9.64844H54.5999V12.3662H48.1087L47.7044 15.8589C47.929 15.7391 48.2547 15.6081 48.6814 15.4658C49.1157 15.3161 49.6061 15.2412 50.1526 15.2412C51.2083 15.2412 52.1067 15.4621 52.8479 15.9038C53.5891 16.3381 54.1544 16.967 54.5437 17.7905C54.9405 18.6066 55.1389 19.5911 55.1389 20.7441C55.1389 21.71 54.9368 22.6121 54.5325 23.4507C54.1357 24.2817 53.5292 24.9518 52.7132 25.4609C51.8971 25.9701 50.8639 26.2246 49.6136 26.2246C48.9023 26.2246 48.2172 26.1198 47.5584 25.9102C46.907 25.693 46.323 25.3786 45.8064 24.9668C45.2898 24.555 44.8743 24.0534 44.5598 23.4619C44.2529 22.8704 44.0882 22.1966 44.0657 21.4404H47.3001C47.3675 22.1143 47.6033 22.6421 48.0076 23.0239C48.4119 23.4058 48.9397 23.5967 49.5911 23.5967C50.1376 23.5967 50.5756 23.4619 50.9051 23.1924C51.242 22.9229 51.4853 22.5597 51.635 22.103C51.7923 21.6388 51.8709 21.126 51.8709 20.5645C51.8709 19.988 51.7735 19.4863 51.5789 19.0596C51.3917 18.6328 51.1072 18.2996 50.7254 18.0601C50.3435 17.8205 49.8531 17.7007 49.2542 17.7007C48.6627 17.7007 48.2097 17.7943 47.8953 17.9814C47.5808 18.1686 47.3113 18.3745 47.0867 18.5991L44.4812 17.959Z" fill="white"/>
<g clip-path="url(#clip0_2052_230)">
<path d="M188.69 21.75L181.744 24.995L183.071 18.122L177.444 13.255L185.209 12.255L188.682 6.00201L192.155 12.255L199.92 13.255L194.293 18.122L195.62 24.995L188.69 21.75Z" fill="url(#paint1_linear_2052_230)"/>
</g>
<g clip-path="url(#clip1_2052_230)">
<path d="M161.681 21.75L154.735 24.995L156.062 18.122L150.435 13.255L158.2 12.255L161.673 6.00201L165.146 12.255L172.911 13.255L167.284 18.122L168.611 24.995L161.681 21.75Z" fill="url(#paint2_linear_2052_230)"/>
</g>
<g clip-path="url(#clip2_2052_230)">
<path d="M134.672 21.75L127.726 24.995L129.053 18.122L123.426 13.255L131.191 12.255L134.664 6.00201L138.137 12.255L145.902 13.255L140.275 18.122L141.602 24.995L134.672 21.75Z" fill="url(#paint3_linear_2052_230)"/>
</g>
<g clip-path="url(#clip3_2052_230)">
<path d="M107.663 21.75L100.717 24.995L102.044 18.122L96.4167 13.255L104.182 12.255L107.655 6.00201L111.128 12.255L118.893 13.255L113.266 18.122L114.593 24.995L107.663 21.75Z" fill="url(#paint4_linear_2052_230)"/>
</g>
<g clip-path="url(#clip4_2052_230)">
<path d="M83.6809 12.4981C83.7581 12.6369 83.8974 12.7308 84.0549 12.751L90.7112 13.6075L85.9299 17.7442C85.7947 17.8612 85.732 18.0413 85.7659 18.2169L86.9055 24.1251L80.8655 21.2969C80.7313 21.2341 80.5759 21.2342 80.4417 21.2969L74.384 24.127L75.5256 18.2169C75.5595 18.0414 75.4967 17.8612 75.3616 17.7442L70.5793 13.6075L77.2366 12.751C77.394 12.7307 77.5325 12.6368 77.6096 12.4981L80.6448 7.03131L83.6809 12.4981Z" stroke="url(#paint5_linear_2052_230)" stroke-linecap="round" stroke-linejoin="round"/>
<path d="M84.0298 12.0947V23.3301L80.6538 21.75L73.7075 24.9951L75.0347 18.1221L69.4077 13.2549L77.1724 12.2549L80.646 6.00195L84.0298 12.0947Z" fill="url(#paint6_linear_2052_230)"/>
</g>
</g>
<defs>
<linearGradient id="paint0_linear_2052_230" x1="-200.517" y1="27.9778" x2="-189.8" y2="-31.2351" gradientUnits="userSpaceOnUse">
<stop stop-color="#FFE37A"/>
<stop offset="0.522797" stop-color="#FFC64C"/>
<stop offset="1" stop-color="#FFE37A"/>
</linearGradient>
<linearGradient id="paint1_linear_2052_230" x1="179.255" y1="20.8271" x2="196.674" y2="7.76933" gradientUnits="userSpaceOnUse">
<stop stop-color="#FFE37A"/>
<stop offset="0.522797" stop-color="#FFC64C"/>
<stop offset="1" stop-color="#FFE37A"/>
</linearGradient>
<linearGradient id="paint2_linear_2052_230" x1="152.245" y1="20.8271" x2="169.665" y2="7.76933" gradientUnits="userSpaceOnUse">
<stop stop-color="#FFE37A"/>
<stop offset="0.522797" stop-color="#FFC64C"/>
<stop offset="1" stop-color="#FFE37A"/>
</linearGradient>
<linearGradient id="paint3_linear_2052_230" x1="125.236" y1="20.8271" x2="142.656" y2="7.76933" gradientUnits="userSpaceOnUse">
<stop stop-color="#FFE37A"/>
<stop offset="0.522797" stop-color="#FFC64C"/>
<stop offset="1" stop-color="#FFE37A"/>
</linearGradient>
<linearGradient id="paint4_linear_2052_230" x1="98.2273" y1="20.8271" x2="115.647" y2="7.76933" gradientUnits="userSpaceOnUse">
<stop stop-color="#FFE37A"/>
<stop offset="0.522797" stop-color="#FFC64C"/>
<stop offset="1" stop-color="#FFE37A"/>
</linearGradient>
<linearGradient id="paint5_linear_2052_230" x1="71.218" y1="20.8271" x2="88.6376" y2="7.76933" gradientUnits="userSpaceOnUse">
<stop stop-color="#FFE37A"/>
<stop offset="0.522797" stop-color="#FFC64C"/>
<stop offset="1" stop-color="#FFE37A"/>
</linearGradient>
<linearGradient id="paint6_linear_2052_230" x1="70.5856" y1="20.8272" x2="84.8853" y2="13.8538" gradientUnits="userSpaceOnUse">
<stop stop-color="#FFE37A"/>
<stop offset="0.522797" stop-color="#FFC64C"/>
<stop offset="1" stop-color="#FFE37A"/>
</linearGradient>
<clipPath id="clip0_2052_230">
<rect width="27.0091" height="24" fill="white" transform="translate(175.185 4)"/>
</clipPath>
<clipPath id="clip1_2052_230">
<rect width="27.0091" height="24" fill="white" transform="translate(148.176 4)"/>
</clipPath>
<clipPath id="clip2_2052_230">
<rect width="27.0091" height="24" fill="white" transform="translate(121.167 4)"/>
</clipPath>
<clipPath id="clip3_2052_230">
<rect width="27.0091" height="24" fill="white" transform="translate(94.1581 4)"/>
</clipPath>
<clipPath id="clip4_2052_230">
<rect width="27.0091" height="24" fill="white" transform="translate(67.1489 4)"/>
</clipPath>
</defs>
</svg>
